<?xml version="1.0" encoding="UTF-8" standalone="no"?>
<!-- Created with Inkscape (http://www.inkscape.org/) -->

<svg
   width="256mm"
   height="256mm"
   viewBox="0 0 256 256"
   version="1.1"
   id="svg1"
   xml:space="preserve"
   inkscape:version="1.4 (1:1.4+202410161351+e7c3feb100)"
   sodipodi:docname="selector.svg"
   xmlns:inkscape="http://www.inkscape.org/namespaces/inkscape"
   xmlns:sodipodi="http://sodipodi.sourceforge.net/DTD/sodipodi-0.dtd"
   xmlns="http://www.w3.org/2000/svg"
   xmlns:svg="http://www.w3.org/2000/svg"><sodipodi:namedview
     id="namedview1"
     pagecolor="#ffffff"
     bordercolor="#000000"
     borderopacity="0.25"
     inkscape:showpageshadow="2"
     inkscape:pageopacity="0.0"
     inkscape:pagecheckerboard="0"
     inkscape:deskcolor="#d1d1d1"
     inkscape:document-units="mm"
     inkscape:zoom="0.50772211"
     inkscape:cx="541.63487"
     inkscape:cy="531.78697"
     inkscape:window-width="1920"
     inkscape:window-height="1011"
     inkscape:window-x="0"
     inkscape:window-y="0"
     inkscape:window-maximized="1"
     inkscape:current-layer="layer1" /><defs
     id="defs1" /><g
     inkscape:label="Layer 1"
     inkscape:groupmode="layer"
     id="layer1"><path
       style="fill:#54b8c9;stroke-width:1.8143"
       d="m 10.142119,250.58925 c -0.2640155,-0.088 -1.0701099,-0.29014 -1.7913293,-0.44908 -1.7592533,-0.38764 -4.68004,-3.01629 -5.4806728,-4.93246 C 2.3569065,243.97943 2.22156,238.99009 2.22156,221.29942 c 0,-21.48166 0.03792,-22.43042 0.9695612,-24.25657 0.5332406,-1.04526 1.8675681,-2.49476 2.9651461,-3.22111 l 1.9956018,-1.32062 H 31.263703 54.375536 l 1.688224,1.15679 c 0.928523,0.63624 2.2088,1.91627 2.845042,2.84451 l 1.156779,1.6877 0.133531,22.7149 c 0.146051,24.84153 0.223552,24.05872 -2.689153,27.17123 -2.41988,2.58589 -4.046308,2.75258 -26.45354,2.71103 -11.238877,-0.0209 -20.650319,-0.10989 -20.914335,-0.19803 z M 48.670781,221.53039 48.544868,204.23644 H 31.263667 13.982465 l -0.125911,17.29395 -0.126094,17.29393 h 17.533189 17.533207 z m 23.635666,0.0375 v -5.75992 l 33.404073,-0.13263 33.40406,-0.13261 1.16108,-1.35006 1.16108,-1.35006 -0.12277,-39.93279 -0.12289,-39.93283 -34.44239,-0.12314 -34.442392,-0.12313 v -5.75405 -5.75405 l 34.442392,-0.12313 34.44239,-0.12314 0.12265,-40.412885 0.12288,-40.412883 -1.16108,-1.350019 -1.1611,-1.350022 L 105.71041,37.321 72.306358,37.191459 v -5.750798 -5.750822 h 34.064352 c 33.07523,0 34.14013,0.0283 36.67316,0.976075 3.32234,1.24305 6.42873,3.976328 8.24417,7.253914 l 1.42391,2.570771 0.24001,42.242927 0.24002,42.242954 15.24105,0.12682 15.24109,0.12682 v 5.75364 5.75368 H 168.313 152.95191 v 41.02485 c 0,40.07374 -0.0226,41.08531 -0.97607,43.63362 -1.30401,3.48529 -4.19696,6.66879 -7.56158,8.32103 l -2.74313,1.34704 -34.6824,0.13227 -34.682421,0.13226 z m 129.434893,-66.4925 c -1.01984,-0.36356 -2.49565,-1.27213 -3.27956,-2.01907 -2.79441,-2.66257 -2.78677,-2.58962 -2.78677,-26.58718 0,-14.37102 0.1769,-22.45994 0.51057,-23.34301 0.72588,-1.9212 2.77491,-3.966866 5.00982,-5.001567 1.77709,-0.822797 3.51502,-0.889794 23.32999,-0.899552 15.14857,-0.0079 21.88707,0.15403 23.04159,0.552217 2.37363,0.818608 4.00346,2.154277 5.17727,4.242822 1.01831,1.81183 1.03419,2.18813 1.03419,24.50034 v 22.66026 l -1.2028,2.05246 c -0.86209,1.47106 -1.9114,2.40555 -3.70421,3.29894 l -2.50139,1.2465 -21.38723,-0.021 c -16.90199,-0.0163 -21.77611,-0.15967 -23.24147,-0.6821 z m 40.4969,-28.5789 v -17.28118 h -17.52121 -17.52121 v 17.28121 17.2812 h 17.52121 17.52121 z M 7.5162124,58.051696 C 5.3222698,57.100096 4.2338893,56.072405 3.1305421,53.910612 2.2770961,52.238409 2.22156,50.763782 2.22156,29.773522 2.22156,12.082851 2.3569065,7.0934997 2.8701169,5.8652319 3.7309485,3.8049437 6.6191684,1.3247933 8.5717342,0.96915081 9.4354499,0.81183342 20.203842,0.74717642 32.501509,0.82545876 l 22.359388,0.14233109 1.766711,1.34790175 c 0.971703,0.741346 2.202848,2.2027913 2.735913,3.2476573 0.937757,1.8381665 0.964838,2.6360175 0.835631,24.6095021 l -0.133542,22.709761 -1.288423,1.946363 c -0.775807,1.172018 -2.125231,2.351476 -3.391775,2.964602 -2.051719,0.993219 -2.644886,1.017766 -24.153351,0.999442 C 12.685768,58.77669 8.9173763,58.659486 7.5162477,58.051679 Z M 33.891642,48.332477 c 0.852795,-0.636693 3.090297,-5.142196 7.572052,-15.247169 3.498858,-7.888882 6.583003,-15.014417 6.85366,-15.834516 1.150902,-3.487229 -1.943713,-7.4023675 -5.851024,-7.4023675 -3.197285,0 -4.614997,1.8777005 -9.06092,12.0008365 -2.145118,4.88433 -4.068493,9.055695 -4.274144,9.269673 -0.205669,0.213997 -1.473174,-1.093732 -2.816699,-2.906053 -2.703505,-3.646833 -4.145475,-4.654913 -6.560435,-4.586459 -4.165577,0.118111 -7.230345,4.590686 -5.464778,7.975061 0.300847,0.576693 3.14527,4.584426 6.320928,8.906084 3.948405,5.373264 6.241716,8.068478 7.253533,8.524684 1.807206,0.814821 4.402779,0.513502 6.027827,-0.699774 z M 10.622152,150.26227 c -0.264016,-0.0881 -1.0701094,-0.29015 -1.7913299,-0.44909 -1.7592532,-0.38763 -4.6800399,-3.01628 -5.4806718,-4.93245 -0.5132104,-1.22828 -0.6485579,-6.21762 -0.6485579,-23.9083 0,-21.481661 0.03792,-22.430413 0.9695622,-24.256556 0.5332406,-1.045258 1.8675671,-2.494757 2.9651452,-3.221107 L 8.6319025,92.174132 H 31.743737 54.855571 l 1.688223,1.156798 c 0.92852,0.636243 2.208797,1.916264 2.84504,2.844519 l 1.156778,1.687701 0.133532,22.71489 c 0.14605,24.84153 0.223561,24.05872 -2.689153,27.17124 -2.419877,2.58589 -4.046305,2.75256 -26.453537,2.71102 -11.238877,-0.0209 -20.650322,-0.1099 -20.914338,-0.19803 z M 49.150815,121.20342 49.024902,103.90945 H 31.743701 14.462498 l -0.125911,17.29397 -0.126095,17.29394 h 17.533191 17.533208 z"
       id="path1"
       sodipodi:nodetypes="sssssscccsscssssscccccccccccccccccccccccccccccccssscccccccccsssccccssssscssscssccsscccccccccssscsscssscsscssssssssscssss" /></g></svg>
